OxygenSans-Regular.ufo-OLD.ufo
<glyph name="dollar" format="1">
  <advance width="581"/>
  <unicode hex="0024"/>
  <outline>
    <contour>
      <point x="193" y="-278" type="line"/>
      <point x="329" y="-278" type="line"/>
      <point x="367" y="61" type="line"/>
      <point x="232" y="61" type="line"/>
    </contour>
    <contour>
      <point x="377" y="1785" type="line"/>
      <point x="247" y="1785" type="line"/>
      <point x="209" y="1446" type="line"/>
      <point x="340" y="1446" type="line"/>
    </contour>
    <component base="S"/>
  </outline>
</glyph>
<glyph name="two" format="1">
  <advance width="1109"/>
  <unicode hex="0032"/>
  <outline>
    <contour>
      <point x="85" y="0" type="line"/>
      <point x="1003" y="0" type="line"/>
      <point x="1012" y="123" type="line"/>
      <point x="199" y="123" type="line"/>
      <point x="218" y="95" type="line"/>
      <point x="697" y="573" type="line" smooth="yes"/>
      <point x="889" y="765"/>
      <point x="969" y="865"/>
      <point x="969" y="1074" type="curve" smooth="yes"/>
      <point x="969" y="1385"/>
      <point x="720" y="1476"/>
      <point x="536" y="1476" type="curve" smooth="yes"/>
      <point x="270" y="1476"/>
      <point x="149" y="1355"/>
      <point x="95" y="1260" type="curve"/>
      <point x="191" y="1160" type="line"/>
      <point x="250" y="1249"/>
      <point x="353" y="1334"/>
      <point x="536" y="1334" type="curve" smooth="yes"/>
      <point x="651" y="1334"/>
      <point x="807" y="1284"/>
      <point x="807" y="1058" type="curve" smooth="yes"/>
      <point x="807" y="890"/>
      <point x="733" y="826"/>
      <point x="589" y="684" type="curve" smooth="yes"/>
      <point x="59" y="134" type="line"/>
    </contour>
  </outline>
</glyph>
<glyph name="four" format="1">
  <advance width="1109"/>
  <unicode hex="0034"/>
  <outline>
    <contour>
      <point x="211" y="513" type="line"/>
      <point x="741" y="1245" type="line"/>
      <point x="741" y="513" type="line"/>
    </contour>
    <contour>
      <point x="741" y="0" type="line"/>
      <point x="899" y="0" type="line"/>
      <point x="899" y="377" type="line"/>
      <point x="1086" y="377" type="line"/>
      <point x="1098" y="513" type="line"/>
      <point x="899" y="513" type="line"/>
      <point x="899" y="1456" type="line"/>
      <point x="730" y="1456" type="line"/>
      <point x="46" y="525" type="line"/>
      <point x="66" y="377" type="line"/>
      <point x="741" y="377" type="line"/>
    </contour>
  </outline>
</glyph>
<glyph name="seven" format="1">
  <advance width="1215"/>
  <unicode hex="0037"/>
  <outline>
    <contour>
      <point x="544" y="0" type="line"/>
      <point x="710" y="0" type="line"/>
      <point x="1222" y="1336" type="line"/>
      <point x="1222" y="1456" type="line"/>
      <point x="237" y="1456" type="line"/>
      <point x="256" y="1319" type="line"/>
      <point x="1048" y="1319" type="line"/>
    </contour>
  </outline>
</glyph>
<glyph name="E" format="1">
  <advance width="1162"/>
  <unicode hex="0045"/>
  <outline>
    <contour>
      <point x="129" y="0" type="line"/>
      <point x="1083" y="0" type="line"/>
      <point x="1095" y="137" type="line"/>
      <point x="246" y="137" type="line"/>
      <point x="305" y="67" type="line"/>
      <point x="305" y="741" type="line"/>
      <point x="246" y="686" type="line"/>
      <point x="1012" y="686" type="line"/>
      <point x="1012" y="822" type="line"/>
      <point x="246" y="822" type="line"/>
      <point x="305" y="775" type="line"/>
      <point x="305" y="1374" type="line"/>
      <point x="246" y="1321" type="line"/>
      <point x="1074" y="1321" type="line"/>
      <point x="1080" y="1456" type="line"/>
      <point x="129" y="1456" type="line"/>
    </contour>
    <contour>
      <point x="806" y="0.0" type="move" name="ogonek"/>
    </contour>
    <contour>
      <point x="636" y="0" type="move" name="bot"/>
    </contour>
    <contour>
      <point x="659" y="1456" type="move" name="top"/>
    </contour>
  </outline>
</glyph>
<glyph name="I" format="1">
  <advance width="845"/>
  <unicode hex="0049"/>
  <outline>
    <contour>
      <point x="148" y="1456" type="line"/>
      <point x="148" y="1347" type="line"/>
      <point x="380" y="1347" type="line"/>
      <point x="340" y="1401" type="line"/>
      <point x="340" y="58" type="line"/>
      <point x="380" y="110" type="line"/>
      <point x="148" y="110" type="line"/>
      <point x="148" y="0" type="line"/>
      <point x="706" y="0" type="line"/>
      <point x="706" y="110" type="line"/>
      <point x="476" y="110" type="line"/>
      <point x="516" y="56" type="line"/>
      <point x="516" y="1402" type="line"/>
      <point x="476" y="1347" type="line"/>
      <point x="706" y="1347" type="line"/>
      <point x="706" y="1456" type="line"/>
    </contour>
    <contour>
      <point x="429" y="0.0" type="move" name="bot"/>
    </contour>
    <contour>
      <point x="428" y="1456" type="move" name="top"/>
    </contour>
  </outline>
</glyph>
<glyph name="J" format="1">
  <advance width="898"/>
  <unicode hex="004A"/>
  <outline>
    <contour>
      <point x="329" y="-168" type="line" smooth="yes"/>
      <point x="654" y="-133"/>
      <point x="764" y="0"/>
      <point x="764" y="308" type="curve" smooth="yes"/>
      <point x="764" y="1456" type="line"/>
      <point x="588" y="1456" type="line"/>
      <point x="588" y="282" type="line" smooth="yes"/>
      <point x="588" y="84"/>
      <point x="523" y="13"/>
      <point x="317" y="-19" type="curve" smooth="yes"/>
      <point x="237" y="-31" type="line"/>
      <point x="253" y="-176" type="line"/>
    </contour>
    <contour>
      <point x="681" y="1456" type="move" name="top"/>
    </contour>
  </outline>
</glyph>
<glyph name="P" format="1">
  <advance width="1215"/>
  <unicode hex="0050"/>
  <outline>
    <contour>
      <point x="135" y="0" type="line"/>
      <point x="311" y="0" type="line"/>
      <point x="311" y="678" type="line"/>
      <point x="251" y="639" type="line"/>
      <point x="942" y="605"/>
      <point x="1112" y="808"/>
      <point x="1112" y="1068" type="curve" smooth="yes"/>
      <point x="1112" y="1403"/>
      <point x="890" y="1489"/>
      <point x="135" y="1445" type="curve"/>
    </contour>
    <contour>
      <point x="251" y="1315" type="line"/>
      <point x="802" y="1352"/>
      <point x="936" y="1290"/>
      <point x="936" y="1066" type="curve" smooth="yes"/>
      <point x="936" y="868"/>
      <point x="825" y="744"/>
      <point x="251" y="778" type="curve"/>
      <point x="311" y="731" type="line"/>
      <point x="311" y="1372" type="line"/>
    </contour>
    <contour>
      <point x="617" y="1456" type="move" name="top"/>
    </contour>
  </outline>
</glyph>
<glyph name="S" format="1">
  <advance width="1162"/>
  <unicode hex="0053"/>
  <outline>
    <contour>
      <point x="1066.0" y="374.0" type="curve" smooth="yes"/>
      <point x="1069.0" y="709.0"/>
      <point x="850.0" y="734.0"/>
      <point x="465.0" y="892.0" type="curve" smooth="yes"/>
      <point x="333.0" y="945.0"/>
      <point x="254.0" y="983.0"/>
      <point x="265.0" y="1120.0" type="curve" smooth="yes"/>
      <point x="279.0" y="1297.0"/>
      <point x="413" y="1331"/>
      <point x="587.0" y="1334.0" type="curve" smooth="yes"/>
      <point x="738" y="1337"/>
      <point x="874" y="1280"/>
      <point x="942" y="1194" type="curve"/>
      <point x="1040" y="1289" type="line"/>
      <point x="940" y="1425"/>
      <point x="757" y="1478"/>
      <point x="581.0" y="1476.0" type="curve" smooth="yes"/>
      <point x="338" y="1473"/>
      <point x="110.0" y="1399.0"/>
      <point x="92.0" y="1121.0" type="curve" smooth="yes"/>
      <point x="72.0" y="819.0"/>
      <point x="272.0" y="800.0"/>
      <point x="632.0" y="651.0" type="curve" smooth="yes"/>
      <point x="803.0" y="580.0"/>
      <point x="906.0" y="529.0"/>
      <point x="901.0" y="369.0" type="curve" smooth="yes"/>
      <point x="895.0" y="184.0"/>
      <point x="749.0" y="123.0"/>
      <point x="564.0" y="123.0" type="curve" smooth="yes"/>
      <point x="455.0" y="123.0"/>
      <point x="287.0" y="159.0"/>
      <point x="190.0" y="262.0" type="curve"/>
      <point x="85" y="164" type="line"/>
      <point x="167" y="66"/>
      <point x="341.0" y="-20.0"/>
      <point x="567.0" y="-20.0" type="curve" smooth="yes"/>
      <point x="802.0" y="-20.0"/>
      <point x="1063.0" y="72.0"/>
    </contour>
    <contour>
      <point x="594" y="0" type="move" name="bot"/>
    </contour>
    <contour>
      <point x="589" y="1476" type="move" name="top"/>
    </contour>
  </outline>
</glyph>
<glyph name="U" format="1">
  <advance width="1321"/>
  <unicode hex="0055"/>
  <outline>
    <contour>
      <point x="671" y="-20" type="curve" smooth="yes"/>
      <point x="1055" y="-20"/>
      <point x="1219" y="217"/>
      <point x="1219" y="540" type="curve" smooth="yes"/>
      <point x="1219" y="1457" type="line"/>
      <point x="1043" y="1457" type="line"/>
      <point x="1043" y="546" type="line" smooth="yes"/>
      <point x="1043" y="271"/>
      <point x="934" y="123"/>
      <point x="671" y="123" type="curve" smooth="yes"/>
      <point x="399" y="123"/>
      <point x="299" y="271"/>
      <point x="299" y="546" type="curve" smooth="yes"/>
      <point x="299" y="1457" type="line"/>
      <point x="123" y="1457" type="line"/>
      <point x="123" y="543" type="line" smooth="yes"/>
      <point x="123" y="211"/>
      <point x="283" y="-20"/>
    </contour>
    <contour>
      <point x="816" y="21.0" type="move" name="ogonek"/>
    </contour>
    <contour>
      <point x="668" y="0.5" type="move" name="bot"/>
    </contour>
    <contour>
      <point x="683" y="1456" type="move" name="top"/>
    </contour>
  </outline>
</glyph>
<glyph name="W" format="1">
  <advance width="1532"/>
  <unicode hex="0057"/>
  <outline>
    <contour>
      <point x="276" y="0" type="line"/>
      <point x="443" y="0" type="line"/>
      <point x="812" y="1303" type="line"/>
      <point x="759" y="1303" type="line"/>
      <point x="1114" y="0" type="line"/>
      <point x="1285" y="0" type="line"/>
      <point x="1618" y="1456" type="line"/>
      <point x="1448" y="1456" type="line"/>
      <point x="1185" y="166" type="line"/>
      <point x="1215" y="166" type="line"/>
      <point x="868" y="1425" type="line"/>
      <point x="698" y="1425" type="line"/>
      <point x="346" y="167" type="line"/>
      <point x="376" y="167" type="line"/>
      <point x="98" y="1456" type="line"/>
      <point x="-67" y="1456" type="line"/>
    </contour>
    <contour>
      <point x="782" y="0.0" type="move" name="bot"/>
    </contour>
    <contour>
      <point x="785" y="1456" type="move" name="top"/>
    </contour>
  </outline>
</glyph>
<glyph name="asciicircum" format="1">
  <advance width="898"/>
  <unicode hex="005E"/>
  <unicode hex="0302"/>
  <outline>
    <contour>
      <point x="180" y="1074" type="line"/>
      <point x="291" y="1074" type="line"/>
      <point x="449" y="1355" type="line"/>
      <point x="603" y="1074" type="line"/>
      <point x="715" y="1074" type="line"/>
      <point x="547" y="1456" type="line"/>
      <point x="360" y="1456" type="line"/>
    </contour>
  </outline>
</glyph>
<glyph name="i" format="1">
  <advance width="581"/>
  <unicode hex="0069"/>
  <outline>
    <contour>
      <point x="294" y="1496" type="curve" smooth="yes"/>
      <point x="357" y="1496"/>
      <point x="382" y="1459"/>
      <point x="382" y="1395" type="curve" smooth="yes"/>
      <point x="382" y="1330"/>
      <point x="357" y="1292"/>
      <point x="294" y="1292" type="curve" smooth="yes"/>
      <point x="230" y="1292"/>
      <point x="206" y="1330"/>
      <point x="206" y="1395" type="curve" smooth="yes"/>
      <point x="206" y="1459"/>
      <point x="230" y="1496"/>
    </contour>
    <contour>
      <point x="212" y="0" type="line"/>
      <point x="376" y="0" type="line"/>
      <point x="376" y="1082" type="line"/>
      <point x="212" y="1082" type="line"/>
    </contour>
    <contour>
      <point x="294" y="0.0" type="move" name="bot"/>
    </contour>
  </outline>
</glyph>
<glyph name="m" format="1">
  <advance width="1796"/>
  <unicode hex="006D"/>
  <outline>
    <contour>
      <point x="135" y="0" type="line"/>
      <point x="299" y="0" type="line"/>
      <point x="299" y="639" type="line"/>
      <point x="325" y="830"/>
      <point x="424" y="980"/>
      <point x="594" y="980" type="curve" smooth="yes"/>
      <point x="746" y="980"/>
      <point x="805" y="864"/>
      <point x="805" y="609" type="curve" smooth="yes"/>
      <point x="805" y="0" type="line"/>
      <point x="969" y="0" type="line"/>
      <point x="969" y="593" type="line" smooth="yes"/>
      <point x="969" y="870"/>
      <point x="1126" y="980.0"/>
      <point x="1270" y="980" type="curve" smooth="yes"/>
      <point x="1449" y="980"/>
      <point x="1475" y="801"/>
      <point x="1475" y="646" type="curve" smooth="yes"/>
      <point x="1475" y="0" type="line"/>
      <point x="1639" y="0" type="line"/>
      <point x="1639" y="699" type="line" smooth="yes"/>
      <point x="1639" y="965"/>
      <point x="1516" y="1106"/>
      <point x="1296" y="1106" type="curve" smooth="yes"/>
      <point x="1133" y="1106"/>
      <point x="989" y="1018"/>
      <point x="916" y="858" type="curve"/>
      <point x="941" y="862" type="line"/>
      <point x="892" y="1000"/>
      <point x="803" y="1106"/>
      <point x="621" y="1106" type="curve" smooth="yes"/>
      <point x="475" y="1106"/>
      <point x="351" y="1023"/>
      <point x="282" y="860" type="curve"/>
      <point x="300" y="850" type="line"/>
      <point x="277" y="1082" type="line"/>
      <point x="135" y="1082" type="line"/>
    </contour>
    <contour>
      <point x="915" y="1082.4" type="move" name="top"/>
    </contour>
  </outline>
</glyph>
<glyph name="asciitilde" format="1">
  <advance width="1162"/>
  <unicode hex="007E"/>
  <outline>
    <contour>
      <point x="126" y="491" type="curve"/>
      <point x="85" y="587" type="line"/>
      <point x="130" y="698"/>
      <point x="216" y="785"/>
      <point x="344" y="785" type="curve" smooth="yes"/>
      <point x="423" y="785"/>
      <point x="480" y="762"/>
      <point x="580" y="717" type="curve"/>
      <point x="675" y="676"/>
      <point x="754" y="636"/>
      <point x="814" y="636" type="curve" smooth="yes"/>
      <point x="896" y="636"/>
      <point x="976" y="709"/>
      <point x="1014" y="795" type="curve"/>
      <point x="1061" y="706" type="line"/>
      <point x="1012" y="582"/>
      <point x="935" y="505"/>
      <point x="812" y="505" type="curve" smooth="yes"/>
      <point x="743" y="505"/>
      <point x="671" y="534"/>
      <point x="590" y="571" type="curve" smooth="yes"/>
      <point x="486" y="618"/>
      <point x="411" y="653"/>
      <point x="341" y="653" type="curve" smooth="yes"/>
      <point x="253" y="653"/>
      <point x="172" y="579"/>
    </contour>
  </outline>
</glyph>
<glyph name="currency" format="1">
  <advance width="1109"/>
  <unicode hex="00A4"/>
  <outline>
    <contour>
      <point x="562" y="398" type="curve" smooth="yes"/>
      <point x="375" y="398"/>
      <point x="257" y="545"/>
      <point x="257" y="719" type="curve" smooth="yes"/>
      <point x="257" y="892"/>
      <point x="375" y="1041"/>
      <point x="562" y="1041" type="curve" smooth="yes"/>
      <point x="750" y="1041"/>
      <point x="868" y="892"/>
      <point x="868" y="719" type="curve" smooth="yes"/>
      <point x="868" y="546"/>
      <point x="751" y="398"/>
    </contour>
    <contour>
      <point x="1002" y="225" type="line"/>
      <point x="1062" y="292" type="line"/>
      <point x="884" y="469" type="line"/>
      <point x="937" y="540"/>
      <point x="964" y="625"/>
      <point x="964" y="719" type="curve" smooth="yes"/>
      <point x="964" y="808"/>
      <point x="937" y="893"/>
      <point x="883" y="969" type="curve"/>
      <point x="1063" y="1145" type="line"/>
      <point x="1002" y="1212" type="line"/>
      <point x="821" y="1038" type="line"/>
      <point x="750" y="1098"/>
      <point x="660" y="1133"/>
      <point x="562" y="1133" type="curve" smooth="yes"/>
      <point x="464" y="1133"/>
      <point x="374" y="1100"/>
      <point x="302" y="1039" type="curve"/>
      <point x="123" y="1212" type="line"/>
      <point x="59" y="1148" type="line"/>
      <point x="241" y="969" type="line"/>
      <point x="187" y="896"/>
      <point x="160" y="810"/>
      <point x="160" y="719" type="curve" smooth="yes"/>
      <point x="160" y="627"/>
      <point x="187" y="542"/>
      <point x="241" y="469" type="curve"/>
      <point x="60" y="293" type="line"/>
      <point x="123" y="226" type="line"/>
      <point x="303" y="400" type="line"/>
      <point x="375" y="339"/>
      <point x="462" y="307"/>
      <point x="562" y="307" type="curve" smooth="yes"/>
      <point x="661" y="307"/>
      <point x="750" y="340"/>
      <point x="821" y="399" type="curve"/>
    </contour>
  </outline>
</glyph>
<glyph name="logicalnot" format="1">
  <advance width="1215"/>
  <unicode hex="00AC"/>
  <outline>
    <contour>
      <point x="926" y="253" type="line"/>
      <point x="1047" y="253" type="line"/>
      <point x="1047" y="804" type="line"/>
      <point x="91" y="804" type="line"/>
      <point x="91" y="676" type="line"/>
      <point x="926" y="676" type="line"/>
    </contour>
  </outline>
</glyph>
<glyph name="periodcentered" format="1">
  <advance width="634"/>
  <unicode hex="00B7"/>
  <outline>
    <contour>
      <point x="304" y="732" type="curve" smooth="yes"/>
      <point x="367" y="732"/>
      <point x="415" y="688"/>
      <point x="415" y="624" type="curve" smooth="yes"/>
      <point x="415" y="559"/>
      <point x="367" y="514"/>
      <point x="304" y="514" type="curve" smooth="yes"/>
      <point x="240" y="514"/>
      <point x="193" y="559"/>
      <point x="193" y="624" type="curve" smooth="yes"/>
      <point x="193" y="688"/>
      <point x="240" y="732"/>
    </contour>
    <contour>
      <point x="305" y="622.65" type="move" name="_mid"/>
    </contour>
  </outline>
</glyph>
<glyph name="uni00B9" format="1">
  <advance width="792"/>
  <unicode hex="00B9"/>
  <outline>
    <contour>
      <point x="171" y="598" type="line"/>
      <point x="602" y="598" type="line"/>
      <point x="602" y="710" type="line"/>
      <point x="463" y="710" type="line"/>
      <point x="463" y="1482" type="line"/>
      <point x="353" y="1482" type="line"/>
      <point x="311" y="1442"/>
      <point x="197" y="1391"/>
      <point x="161" y="1378" type="curve"/>
      <point x="161" y="1264" type="line"/>
      <point x="195" y="1277"/>
      <point x="288" y="1314"/>
      <point x="325" y="1338" type="curve"/>
      <point x="325" y="710" type="line"/>
      <point x="171" y="710" type="line"/>
    </contour>
  </outline>
</glyph>
<glyph name="ordmasculine" format="1">
  <advance width="951"/>
  <unicode hex="00BA"/>
  <outline>
    <contour>
      <point x="801" y="1092" type="curve" smooth="yes"/>
      <point x="801" y="1317"/>
      <point x="689" y="1477"/>
      <point x="465" y="1477" type="curve" smooth="yes"/>
      <point x="247" y="1477"/>
      <point x="129" y="1314"/>
      <point x="129" y="1092" type="curve" smooth="yes"/>
      <point x="129" y="875"/>
      <point x="247" y="713"/>
      <point x="465" y="713" type="curve" smooth="yes"/>
      <point x="671" y="713"/>
      <point x="801" y="878"/>
    </contour>
    <contour>
      <point x="266" y="1092" type="curve" smooth="yes"/>
      <point x="266" y="1265"/>
      <point x="333" y="1370"/>
      <point x="465" y="1370" type="curve" smooth="yes"/>
      <point x="601" y="1370"/>
      <point x="671" y="1263"/>
      <point x="671" y="1089" type="curve" smooth="yes"/>
      <point x="671" y="920"/>
      <point x="605" y="820"/>
      <point x="465" y="820" type="curve" smooth="yes"/>
      <point x="332" y="820"/>
      <point x="266" y="921"/>
    </contour>
  </outline>
</glyph>
<glyph name="guillemotright" format="1">
  <advance width="951"/>
  <unicode hex="00BB"/>
  <outline>
    <contour>
      <point x="236" y="148" type="line"/>
      <point x="520" y="549" type="line"/>
      <point x="233" y="953" type="line"/>
      <point x="72" y="953" type="line"/>
      <point x="356" y="552" type="line"/>
      <point x="79" y="148" type="line"/>
    </contour>
    <contour>
      <point x="589" y="148" type="line"/>
      <point x="873" y="549" type="line"/>
      <point x="585" y="953" type="line"/>
      <point x="424" y="953" type="line"/>
      <point x="708" y="552" type="line"/>
      <point x="432" y="148" type="line"/>
    </contour>
  </outline>
</glyph>
<glyph name="AE" format="1">
  <advance width="1479"/>
  <unicode hex="00C6"/>
  <outline>
    <contour>
      <point x="677" y="0" type="line"/>
      <point x="1467" y="0" type="line"/>
      <point x="1479" y="137" type="line"/>
      <point x="846" y="137" type="line"/>
      <point x="846" y="696" type="line"/>
      <point x="1396" y="696" type="line"/>
      <point x="1396" y="832" type="line"/>
      <point x="846" y="832" type="line"/>
      <point x="846" y="1321" type="line"/>
      <point x="1458" y="1321" type="line"/>
      <point x="1464" y="1456" type="line"/>
      <point x="593" y="1456" type="line"/>
      <point x="-48" y="0" type="line"/>
      <point x="133" y="0" type="line"/>
      <point x="334" y="472" type="line"/>
      <point x="677" y="472" type="line"/>
    </contour>
    <contour>
      <point x="677" y="597" type="line"/>
      <point x="382" y="597" type="line"/>
      <point x="677" y="1301" type="line"/>
    </contour>
    <contour>
      <point x="1003" y="1496.5" type="move" name="top"/>
    </contour>
  </outline>
</glyph>
<glyph name="Oslash" format="1">
  <advance width="1057"/>
  <unicode hex="00D8"/>
  <outline>
    <contour>
      <point x="200" y="-228" type="line"/>
      <point x="924" y="1670" type="line"/>
      <point x="822" y="1709" type="line"/>
      <point x="104" y="-194" type="line"/>
    </contour>
    <component base="O"/>
  </outline>
</glyph>
<glyph name="germandbls" format="1">
  <advance width="1215"/>
  <unicode hex="00DF"/>
  <outline>
    <contour>
      <point x="319" y="1" type="line"/>
      <point x="155" y="1" type="line"/>
      <point x="155" y="1088" type="line" smooth="yes"/>
      <point x="155" y="1382"/>
      <point x="307" y="1560"/>
      <point x="604" y="1560" type="curve" smooth="yes"/>
      <point x="828" y="1560"/>
      <point x="971" y="1433"/>
      <point x="971" y="1244" type="curve" smooth="yes"/>
      <point x="971" y="1029"/>
      <point x="762" y="917"/>
      <point x="762" y="824" type="curve" smooth="yes"/>
      <point x="762" y="705"/>
      <point x="1154" y="592"/>
      <point x="1154" y="294" type="curve" smooth="yes"/>
      <point x="1154" y="102"/>
      <point x="1032" y="-20"/>
      <point x="832" y="-20" type="curve" smooth="yes"/>
      <point x="706" y="-20"/>
      <point x="567" y="18"/>
      <point x="489" y="58" type="curve"/>
      <point x="533" y="183" type="line"/>
      <point x="589" y="153"/>
      <point x="702" y="114"/>
      <point x="813" y="114" type="curve" smooth="yes"/>
      <point x="941" y="114"/>
      <point x="994" y="199"/>
      <point x="994" y="291" type="curve" smooth="yes"/>
      <point x="994" y="506"/>
      <point x="610" y="611"/>
      <point x="610" y="809" type="curve" smooth="yes"/>
      <point x="610" y="977"/>
      <point x="814" y="1037"/>
      <point x="814" y="1245" type="curve" smooth="yes"/>
      <point x="814" y="1354"/>
      <point x="746" y="1429"/>
      <point x="609" y="1429" type="curve" smooth="yes"/>
      <point x="422" y="1429"/>
      <point x="319" y="1336"/>
      <point x="319" y="1092" type="curve" smooth="yes"/>
    </contour>
  </outline>
</glyph>
<glyph name="eng" format="1">
  <advance width="1162"/>
  <unicode hex="014B"/>
  <outline>
    <contour>
      <point x="612" y="-282" type="line"/>
      <point x="679" y="-282" type="line" smooth="yes"/>
      <point x="955" y="-282"/>
      <point x="995" y="-129"/>
      <point x="995" y="172" type="curve" smooth="yes"/>
      <point x="995" y="670" type="line" smooth="yes"/>
      <point x="995" y="965"/>
      <point x="892" y="1114"/>
      <point x="648" y="1114" type="curve" smooth="yes"/>
      <point x="496" y="1114"/>
      <point x="386" y="1055"/>
      <point x="311" y="932" type="curve"/>
      <point x="292" y="1093" type="line"/>
      <point x="148" y="1093" type="line"/>
      <point x="148" y="7" type="line"/>
      <point x="315" y="7" type="line"/>
      <point x="315" y="612" type="line" smooth="yes"/>
      <point x="315" y="661"/>
      <point x="318" y="706"/>
      <point x="322" y="750" type="curve"/>
      <point x="353" y="883"/>
      <point x="432" y="984"/>
      <point x="620" y="984" type="curve" smooth="yes"/>
      <point x="790" y="984"/>
      <point x="829" y="871"/>
      <point x="829" y="689" type="curve" smooth="yes"/>
      <point x="829" y="119" type="line" smooth="yes"/>
      <point x="829" y="-100"/>
      <point x="811" y="-129"/>
      <point x="639" y="-129" type="curve" smooth="yes"/>
      <point x="604" y="-129" type="line"/>
    </contour>
  </outline>
</glyph>
<glyph name="uni0237" format="1">
  <advance width="792"/>
  <unicode hex="0237"/>
  <outline>
    <contour>
      <point x="270" y="-455" type="line"/>
      <point x="327" y="-455" type="line" smooth="yes"/>
      <point x="581" y="-455"/>
      <point x="634" y="-370"/>
      <point x="634" y="-112" type="curve" smooth="yes"/>
      <point x="634" y="1111" type="line"/>
      <point x="454" y="1111" type="line"/>
      <point x="454" y="-87" type="line" smooth="yes"/>
      <point x="454" y="-123"/>
      <point x="455" y="-154"/>
      <point x="455" y="-180" type="curve" smooth="yes"/>
      <point x="455" y="-277"/>
      <point x="440" y="-313"/>
      <point x="297" y="-313" type="curve" smooth="yes"/>
      <point x="237" y="-313" type="line"/>
    </contour>
  </outline>
</glyph>
<glyph name="circumflex" format="1">
  <advance width="898"/>
  <unicode hex="02C6"/>
  <outline>
    <contour>
      <point x="237" y="1166" type="line"/>
      <point x="348" y="1166" type="line"/>
      <point x="546" y="1376" type="line"/>
      <point x="740" y="1166" type="line"/>
      <point x="852" y="1166" type="line"/>
      <point x="644" y="1467" type="line"/>
      <point x="457" y="1467" type="line"/>
    </contour>
    <contour>
      <point x="546" y="1004.05" type="move" name="_top"/>
    </contour>
  </outline>
</glyph>
<glyph name="uni0304" format="1">
  <advance width="898"/>
  <unicode hex="0304"/>
  <outline>
    <contour>
      <point x="237" y="1231" type="line"/>
      <point x="822" y="1231" type="line"/>
      <point x="822" y="1353" type="line"/>
      <point x="237" y="1353" type="line"/>
    </contour>
    <contour>
      <point x="518" y="1002.425" type="move" name="_top"/>
    </contour>
  </outline>
</glyph>
<glyph name="uni030F" format="1">
  <advance width="951"/>
  <unicode hex="030F"/>
  <outline>
    <contour>
      <point x="578" y="1058" type="line"/>
      <point x="473" y="1058" type="line"/>
      <point x="237" y="1470" type="line"/>
      <point x="400" y="1470" type="line"/>
    </contour>
    <contour>
      <point x="781" y="1058" type="line"/>
      <point x="688" y="1058" type="line"/>
      <point x="510" y="1470" type="line"/>
      <point x="668" y="1470" type="line"/>
    </contour>
    <contour>
      <point x="651" y="945.25" type="move" name="_top"/>
    </contour>
  </outline>
</glyph>
<glyph name="uni0326" format="1">
  <advance width="634"/>
  <unicode hex="0326"/>
  <outline>
    <contour>
      <point x="237" y="-594" type="curve"/>
      <point x="334" y="-594" type="line"/>
      <point x="334" y="-594"/>
      <point x="451" y="-141"/>
      <point x="451" y="-111" type="curve" smooth="yes"/>
      <point x="451" y="-70" type="line"/>
      <point x="278" y="-70" type="line"/>
      <point x="278" y="-145"/>
      <point x="237" y="-594"/>
    </contour>
    <contour>
      <point x="369" y="14.85" type="move" name="_bot"/>
    </contour>
  </outline>
</glyph>
<glyph name="Delta" format="1">
  <advance width="1215"/>
  <unicode hex="0394"/>
  <outline>
    <contour>
      <point x="212" y="146" type="line"/>
      <point x="1026" y="146" type="line"/>
      <point x="616" y="1307" type="line"/>
    </contour>
    <contour>
      <point x="-4" y="0" type="line"/>
      <point x="533" y="1482" type="line"/>
      <point x="699" y="1482" type="line"/>
      <point x="1240" y="0" type="line"/>
    </contour>
  </outline>
</glyph>
<glyph name="Phi" format="1">
  <advance width="1585"/>
  <unicode hex="03A6"/>
  <outline>
    <contour>
      <point x="869" y="317" type="line"/>
      <point x="1180" y="344"/>
      <point x="1317" y="534"/>
      <point x="1317" y="766" type="curve" smooth="yes"/>
      <point x="1317" y="1006"/>
      <point x="1168" y="1174"/>
      <point x="869" y="1200" type="curve"/>
    </contour>
    <contour>
      <point x="701" y="317" type="curve"/>
      <point x="701" y="1200" type="line"/>
      <point x="406" y="1173"/>
      <point x="257" y="1006"/>
      <point x="257" y="766" type="curve" smooth="yes"/>
      <point x="257" y="534"/>
      <point x="394" y="345"/>
    </contour>
    <contour>
      <point x="701" y="0" type="line"/>
      <point x="701" y="170" type="line"/>
      <point x="291" y="200"/>
      <point x="78" y="447"/>
      <point x="78" y="766" type="curve" smooth="yes"/>
      <point x="78" y="1091"/>
      <point x="305" y="1318"/>
      <point x="701" y="1347" type="curve"/>
      <point x="701" y="1482" type="line"/>
      <point x="869" y="1482" type="line"/>
      <point x="869" y="1347" type="line"/>
      <point x="1270" y="1320"/>
      <point x="1496" y="1092"/>
      <point x="1496" y="766" type="curve" smooth="yes"/>
      <point x="1496" y="445"/>
      <point x="1282" y="198"/>
      <point x="869" y="170" type="curve"/>
      <point x="869" y="0" type="line"/>
    </contour>
  </outline>
</glyph>
<glyph name="Omega" format="1">
  <advance width="1532"/>
  <unicode hex="03A9"/>
  <outline>
    <contour>
      <point x="757" y="-20" type="curve" smooth="yes"/>
      <point x="322" y="-20"/>
      <point x="65" y="272"/>
      <point x="65" y="731" type="curve" smooth="yes"/>
      <point x="65" y="1200"/>
      <point x="328" y="1492"/>
      <point x="757" y="1492" type="curve" smooth="yes"/>
      <point x="1181" y="1492"/>
      <point x="1448" y="1198"/>
      <point x="1448" y="730" type="curve" smooth="yes"/>
      <point x="1448" y="275"/>
      <point x="1188" y="-20"/>
    </contour>
    <contour>
      <point x="757" y="158" type="curve" smooth="yes"/>
      <point x="1067" y="158"/>
      <point x="1226" y="398"/>
      <point x="1226" y="730" type="curve" smooth="yes"/>
      <point x="1226" y="1074"/>
      <point x="1061" y="1311"/>
      <point x="757" y="1311" type="curve" smooth="yes"/>
      <point x="453" y="1311"/>
      <point x="286" y="1075"/>
      <point x="286" y="730" type="curve" smooth="yes"/>
      <point x="286" y="398"/>
      <point x="447" y="158"/>
    </contour>
  </outline>
</glyph>
<glyph name="afii10059" format="1">
  <advance width="2008"/>
  <unicode hex="040A"/>
  <outline>
    <contour>
      <point x="988" y="0" type="line"/>
      <point x="1456" y="0" type="line" smooth="yes"/>
      <point x="1820" y="0"/>
      <point x="1950" y="165"/>
      <point x="1950" y="417" type="curve" smooth="yes"/>
      <point x="1950" y="663"/>
      <point x="1824" y="825"/>
      <point x="1454" y="825" type="curve" smooth="yes"/>
      <point x="1163" y="825" type="line"/>
      <point x="1164" y="1471" type="line"/>
      <point x="988" y="1471" type="line"/>
      <point x="988" y="825" type="line"/>
      <point x="299" y="825" type="line"/>
      <point x="299" y="1471" type="line"/>
      <point x="123" y="1471" type="line"/>
      <point x="123" y="0" type="line"/>
      <point x="299" y="0" type="line"/>
      <point x="299" y="694" type="line"/>
      <point x="988" y="694" type="line"/>
    </contour>
    <contour>
      <point x="1163" y="694" type="line"/>
      <point x="1447" y="694" type="line" smooth="yes"/>
      <point x="1690" y="694"/>
      <point x="1780" y="623"/>
      <point x="1780" y="417" type="curve" smooth="yes"/>
      <point x="1780" y="212"/>
      <point x="1679" y="131"/>
      <point x="1449" y="131" type="curve" smooth="yes"/>
      <point x="1163" y="131" type="line"/>
    </contour>
  </outline>
</glyph>
<glyph name="afii10037" format="1">
  <advance width="951"/>
  <unicode hex="0423"/>
  <outline>
    <contour>
      <point x="504" y="624" type="line"/>
      <point x="887" y="1476" type="line"/>
      <point x="1003" y="1476" type="line"/>
      <point x="318" y="0" type="line"/>
      <point x="203" y="0" type="line"/>
      <point x="453" y="522" type="line"/>
      <point x="-54" y="1476" type="line"/>
      <point x="59" y="1476" type="line"/>
    </contour>
  </outline>
</glyph>
<glyph name="afii10046" format="1">
  <advance width="1215"/>
  <unicode hex="042C"/>
  <outline>
    <contour>
      <point x="129" y="0" type="line"/>
      <point x="625" y="0" type="line" smooth="yes"/>
      <point x="989" y="0"/>
      <point x="1112" y="174"/>
      <point x="1112" y="426" type="curve" smooth="yes"/>
      <point x="1112" y="672"/>
      <point x="991" y="844"/>
      <point x="621" y="844" type="curve" smooth="yes"/>
      <point x="305" y="844" type="line"/>
      <point x="305" y="1496" type="line"/>
      <point x="129" y="1496" type="line"/>
    </contour>
    <contour>
      <point x="305" y="707" type="line"/>
      <point x="615" y="707" type="line" smooth="yes"/>
      <point x="853" y="707"/>
      <point x="935" y="630"/>
      <point x="935" y="424" type="curve" smooth="yes"/>
      <point x="935" y="219"/>
      <point x="839" y="137"/>
      <point x="617" y="137" type="curve" smooth="yes"/>
      <point x="305" y="137" type="line"/>
    </contour>
  </outline>
</glyph>
<glyph name="afii10067" format="1">
  <advance width="1109"/>
  <unicode hex="0432"/>
  <outline>
    <contour>
      <point x="277" y="611" type="line"/>
      <point x="639" y="611" type="line" smooth="yes"/>
      <point x="802" y="611"/>
      <point x="827" y="713"/>
      <point x="827" y="804" type="curve" smooth="yes"/>
      <point x="827" y="914"/>
      <point x="778" y="994"/>
      <point x="600" y="994" type="curve" smooth="yes"/>
      <point x="277" y="994" type="line"/>
    </contour>
    <contour>
      <point x="277" y="87" type="line"/>
      <point x="595" y="87" type="line" smooth="yes"/>
      <point x="829" y="87"/>
      <point x="862" y="188"/>
      <point x="862" y="309" type="curve" smooth="yes"/>
      <point x="862" y="403"/>
      <point x="861" y="519"/>
      <point x="644" y="519" type="curve" smooth="yes"/>
      <point x="277" y="519" type="line"/>
    </contour>
    <contour>
      <point x="155" y="0" type="line"/>
      <point x="155" y="1081" type="line"/>
      <point x="602" y="1081" type="line" smooth="yes"/>
      <point x="876" y="1081"/>
      <point x="946" y="935"/>
      <point x="946" y="809" type="curve" smooth="yes"/>
      <point x="946" y="683"/>
      <point x="882" y="609"/>
      <point x="777" y="576" type="curve"/>
      <point x="942" y="530"/>
      <point x="982" y="400"/>
      <point x="982" y="309" type="curve" smooth="yes"/>
      <point x="982" y="179"/>
      <point x="926" y="0"/>
      <point x="600" y="0" type="curve" smooth="yes"/>
    </contour>
  </outline>
</glyph>
<glyph name="afii10077" format="1">
  <advance width="1162"/>
  <unicode hex="043B"/>
  <outline>
    <contour>
      <point x="26" y="-7" type="curve"/>
      <point x="8" y="95" type="line"/>
      <point x="184" y="95"/>
      <point x="250" y="139"/>
      <point x="297" y="501" type="curve"/>
      <point x="362" y="1082" type="line"/>
      <point x="1010" y="1082" type="line"/>
      <point x="1010" y="-1" type="line"/>
      <point x="881" y="-1" type="line"/>
      <point x="881" y="986" type="line"/>
      <point x="473" y="986" type="line"/>
      <point x="411" y="489" type="line"/>
      <point x="362" y="65"/>
      <point x="274" y="-7"/>
    </contour>
  </outline>
</glyph>
<glyph name="afii10078" format="1">
  <advance width="1321"/>
  <unicode hex="043C"/>
  <outline>
    <contour>
      <point x="161" y="0" type="line"/>
      <point x="161" y="1081" type="line"/>
      <point x="270" y="1081" type="line"/>
      <point x="651" y="298" type="line"/>
      <point x="1029" y="1081" type="line"/>
      <point x="1135" y="1081" type="line"/>
      <point x="1135" y="0" type="line"/>
      <point x="1022" y="0" type="line"/>
      <point x="1022" y="839" type="line"/>
      <point x="695" y="166" type="line"/>
      <point x="604" y="166" type="line"/>
      <point x="274" y="839" type="line"/>
      <point x="274" y="0" type="line"/>
    </contour>
  </outline>
</glyph>
<glyph name="afii10086" format="1">
  <advance width="1479"/>
  <unicode hex="0444"/>
  <outline>
    <contour>
      <point x="1006" y="147" type="curve" smooth="yes"/>
      <point x="1162" y="147"/>
      <point x="1260" y="349"/>
      <point x="1260" y="564" type="curve" smooth="yes"/>
      <point x="1260" y="782"/>
      <point x="1179" y="961"/>
      <point x="1022" y="961" type="curve" smooth="yes"/>
      <point x="951" y="961"/>
      <point x="866" y="949"/>
      <point x="795" y="909" type="curve"/>
      <point x="795" y="193" type="line"/>
      <point x="862" y="153"/>
      <point x="939" y="147"/>
    </contour>
    <contour>
      <point x="481" y="147" type="curve" smooth="yes"/>
      <point x="546" y="147"/>
      <point x="628" y="155"/>
      <point x="692" y="189" type="curve"/>
      <point x="692" y="917" type="line"/>
      <point x="619" y="957"/>
      <point x="531" y="962"/>
      <point x="464" y="962" type="curve" smooth="yes"/>
      <point x="305" y="962"/>
      <point x="228" y="782"/>
      <point x="228" y="565" type="curve" smooth="yes"/>
      <point x="228" y="350"/>
      <point x="322" y="147"/>
    </contour>
    <contour>
      <point x="692" y="-381" type="line"/>
      <point x="692" y="92" type="line"/>
      <point x="631" y="63"/>
      <point x="546" y="54"/>
      <point x="475" y="54" type="curve" smooth="yes"/>
      <point x="273" y="54"/>
      <point x="110" y="265"/>
      <point x="110" y="564" type="curve" smooth="yes"/>
      <point x="110" y="863"/>
      <point x="254" y="1054"/>
      <point x="465" y="1054" type="curve" smooth="yes"/>
      <point x="531" y="1054"/>
      <point x="631" y="1032"/>
      <point x="692" y="1004" type="curve"/>
      <point x="692" y="1346" type="line"/>
      <point x="795" y="1346" type="line"/>
      <point x="795" y="1004" type="line"/>
      <point x="859" y="1034"/>
      <point x="949" y="1054"/>
      <point x="1020" y="1054" type="curve" smooth="yes"/>
      <point x="1230" y="1054"/>
      <point x="1377" y="864"/>
      <point x="1377" y="565" type="curve" smooth="yes"/>
      <point x="1377" y="268"/>
      <point x="1214" y="54"/>
      <point x="1010" y="54" type="curve" smooth="yes"/>
      <point x="939" y="54"/>
      <point x="854" y="63"/>
      <point x="795" y="92" type="curve"/>
      <point x="795" y="-381" type="line"/>
    </contour>
  </outline>
</glyph>
<glyph name="afii10088" format="1">
  <advance width="1162"/>
  <unicode hex="0446"/>
  <outline>
    <contour>
      <point x="912" y="-275" type="line"/>
      <point x="927" y="7" type="line"/>
      <point x="167" y="7" type="line"/>
      <point x="167" y="1090" type="line"/>
      <point x="294" y="1090" type="line"/>
      <point x="294" y="86" type="line"/>
      <point x="849" y="86" type="line"/>
      <point x="849" y="1090" type="line"/>
      <point x="978" y="1090" type="line"/>
      <point x="978" y="145" type="line"/>
      <point x="1073" y="145" type="line"/>
      <point x="1073" y="-275" type="line"/>
    </contour>
  </outline>
</glyph>
<glyph name="afii10097" format="1">
  <advance width="1109"/>
  <unicode hex="044F"/>
  <outline>
    <contour>
      <point x="483" y="537" type="curve" smooth="yes"/>
      <point x="795" y="537" type="line"/>
      <point x="795" y="996" type="line"/>
      <point x="462" y="996" type="line" smooth="yes"/>
      <point x="251" y="996"/>
      <point x="214" y="875"/>
      <point x="214" y="767" type="curve" smooth="yes"/>
      <point x="214" y="628"/>
      <point x="309" y="537"/>
    </contour>
    <contour>
      <point x="154" y="0" type="line"/>
      <point x="354" y="453" type="line"/>
      <point x="159" y="502"/>
      <point x="97" y="661"/>
      <point x="97" y="774" type="curve" smooth="yes"/>
      <point x="97" y="918"/>
      <point x="191" y="1084"/>
      <point x="462" y="1084" type="curve" smooth="yes"/>
      <point x="917" y="1084" type="line"/>
      <point x="917" y="0" type="line"/>
      <point x="795" y="0" type="line"/>
      <point x="795" y="446" type="line"/>
      <point x="477" y="446" type="line"/>
      <point x="283" y="0" type="line"/>
    </contour>
  </outline>
</glyph>
<glyph name="quotedblbase" format="1">
  <advance width="792"/>
  <unicode hex="201E"/>
  <outline>
    <contour>
      <point x="391" y="-248" type="line"/>
      <point x="487" y="-248" type="line"/>
      <point x="612" y="215" type="line"/>
      <point x="472" y="215" type="line"/>
    </contour>
    <contour>
      <point x="129" y="-248" type="line"/>
      <point x="227" y="-248" type="line"/>
      <point x="347" y="215" type="line"/>
      <point x="211" y="215" type="line"/>
    </contour>
  </outline>
</glyph>
<glyph name="bullet" format="1">
  <advance width="845"/>
  <unicode hex="2022"/>
  <outline>
    <contour>
      <point x="428" y="413" type="curve" smooth="yes"/>
      <point x="264" y="413"/>
      <point x="116" y="531"/>
      <point x="116" y="740" type="curve" smooth="yes"/>
      <point x="116" y="952"/>
      <point x="268" y="1074"/>
      <point x="433" y="1074" type="curve" smooth="yes"/>
      <point x="597" y="1074"/>
      <point x="746" y="955"/>
      <point x="746" y="745" type="curve" smooth="yes"/>
      <point x="746" y="534"/>
      <point x="593" y="413"/>
    </contour>
  </outline>
</glyph>
<glyph name="Euro" format="1">
  <advance width="1057"/>
  <unicode hex="20AC"/>
  <outline>
    <contour>
      <point x="948" y="538" type="line"/>
      <point x="956" y="649" type="line"/>
      <point x="321" y="649" type="line"/>
      <point x="321" y="829" type="line"/>
      <point x="956" y="829" type="line"/>
      <point x="964" y="937" type="line"/>
      <point x="104" y="937" type="line"/>
      <point x="98" y="829" type="line"/>
      <point x="235" y="829" type="line"/>
      <point x="235" y="649" type="line"/>
      <point x="99" y="649" type="line"/>
      <point x="91" y="538" type="line"/>
    </contour>
    <component base="C"/>
  </outline>
</glyph>
<glyph name="partialdiff" format="1">
  <advance width="1162"/>
  <unicode hex="2202"/>
  <outline>
    <contour>
      <point x="491" y="120" type="curve" smooth="yes"/>
      <point x="702" y="120"/>
      <point x="842" y="383"/>
      <point x="873" y="705" type="curve"/>
      <point x="839" y="826"/>
      <point x="748" y="934"/>
      <point x="608" y="934" type="curve" smooth="yes"/>
      <point x="406" y="934"/>
      <point x="247" y="712"/>
      <point x="247" y="451" type="curve" smooth="yes"/>
      <point x="247" y="251"/>
      <point x="342" y="120"/>
    </contour>
    <contour>
      <point x="490" y="-27" type="curve" smooth="yes"/>
      <point x="221" y="-27"/>
      <point x="104" y="182"/>
      <point x="104" y="452" type="curve" smooth="yes"/>
      <point x="104" y="805"/>
      <point x="302" y="1076"/>
      <point x="583" y="1076" type="curve" smooth="yes"/>
      <point x="717" y="1076"/>
      <point x="820" y="1012"/>
      <point x="886" y="900" type="curve"/>
      <point x="886" y="918"/>
      <point x="887" y="951"/>
      <point x="887" y="979" type="curve" smooth="yes"/>
      <point x="887" y="1303"/>
      <point x="774" y="1504"/>
      <point x="563" y="1504" type="curve" smooth="yes"/>
      <point x="463" y="1504"/>
      <point x="365" y="1460"/>
      <point x="287" y="1404" type="curve"/>
      <point x="274" y="1550" type="line"/>
      <point x="355" y="1608"/>
      <point x="467" y="1649"/>
      <point x="587" y="1649" type="curve" smooth="yes"/>
      <point x="877" y="1649"/>
      <point x="1035" y="1418"/>
      <point x="1035" y="915" type="curve" smooth="yes"/>
      <point x="1035" y="452"/>
      <point x="874" y="-27"/>
    </contour>
  </outline>
</glyph>
<glyph name="uni2206" format="1">
  <advance width="1162"/>
  <unicode hex="2206"/>
  <outline>
    <contour>
      <point x="211" y="173" type="line"/>
      <point x="968" y="173" type="line"/>
      <point x="619" y="1192" type="line"/>
      <point x="585" y="1310" type="line"/>
      <point x="553" y="1192" type="line"/>
    </contour>
    <contour>
      <point x="15" y="0" type="line"/>
      <point x="15" y="85" type="line"/>
      <point x="497" y="1537" type="line"/>
      <point x="683" y="1537" type="line"/>
      <point x="1164" y="85" type="line"/>
      <point x="1164" y="0" type="line"/>
    </contour>
  </outline>
</glyph>
<glyph name="notequal" format="1">
  <advance width="1057"/>
  <unicode hex="2260"/>
  <outline>
    <contour>
      <point x="293" y="48" type="line"/>
      <point x="436" y="353" type="line"/>
      <point x="980" y="353" type="line"/>
      <point x="974" y="470" type="line"/>
      <point x="487" y="470" type="line"/>
      <point x="649" y="788" type="line"/>
      <point x="980" y="788" type="line"/>
      <point x="971" y="907" type="line"/>
      <point x="700" y="907" type="line"/>
      <point x="814" y="1189" type="line"/>
      <point x="718" y="1202" type="line"/>
      <point x="580" y="907" type="line"/>
      <point x="53" y="907" type="line"/>
      <point x="60" y="788" type="line"/>
      <point x="528" y="788" type="line"/>
      <point x="371" y="471" type="line"/>
      <point x="54" y="471" type="line"/>
      <point x="60" y="353" type="line"/>
      <point x="314" y="353" type="line"/>
      <point x="199" y="65" type="line"/>
    </contour>
  </outline>
</glyph>
<glyph name="acute.cap" format="1">
  <advance width="739"/>
  <outline>
    <contour>
      <point x="161" y="1058" type="line"/>
      <point x="308" y="1058" type="line"/>
      <point x="620" y="1357" type="line"/>
      <point x="414" y="1357" type="line"/>
    </contour>
    <contour>
      <point x="249" y="945.25" type="move" name="_top"/>
    </contour>
  </outline>
</glyph>
<glyph name="threesuperior" format="1">
  <advance width="792"/>
  <outline>
    <contour>
      <point x="398" y="595" type="curve" smooth="yes"/>
      <point x="543" y="595"/>
      <point x="659" y="692"/>
      <point x="659" y="853" type="curve" smooth="yes"/>
      <point x="659" y="953"/>
      <point x="601" y="1033"/>
      <point x="496" y="1064" type="curve"/>
      <point x="602" y="1091"/>
      <point x="640" y="1178"/>
      <point x="640" y="1242" type="curve" smooth="yes"/>
      <point x="640" y="1399"/>
      <point x="518" y="1476"/>
      <point x="393" y="1476" type="curve" smooth="yes"/>
      <point x="306" y="1476"/>
      <point x="191" y="1441"/>
      <point x="135" y="1379" type="curve"/>
      <point x="189" y="1290" type="line"/>
      <point x="229" y="1331"/>
      <point x="321" y="1361"/>
      <point x="388" y="1361" type="curve" smooth="yes"/>
      <point x="458" y="1361"/>
      <point x="509" y="1322"/>
      <point x="509" y="1240" type="curve" smooth="yes"/>
      <point x="509" y="1157"/>
      <point x="432" y="1115"/>
      <point x="332" y="1115" type="curve" smooth="yes"/>
      <point x="261" y="1115" type="line"/>
      <point x="261" y="999" type="line"/>
      <point x="335" y="999" type="line" smooth="yes"/>
      <point x="445" y="999"/>
      <point x="528" y="952"/>
      <point x="528" y="857" type="curve" smooth="yes"/>
      <point x="528" y="758"/>
      <point x="465" y="711"/>
      <point x="386" y="711" type="curve" smooth="yes"/>
      <point x="324" y="711"/>
      <point x="235" y="737"/>
      <point x="186" y="783" type="curve"/>
      <point x="137" y="684" type="line"/>
      <point x="197" y="621"/>
      <point x="316" y="595"/>
    </contour>
  </outline>
</glyph>
<glyph name="u.alt" format="1">
  <advance width="1162"/>
  <outline>
    <contour>
      <point x="568" y="-18" type="curve" smooth="yes"/>
      <point x="273" y="-18"/>
      <point x="135" y="127"/>
      <point x="135" y="437" type="curve" smooth="yes"/>
      <point x="135" y="1085" type="line"/>
      <point x="301" y="1085" type="line"/>
      <point x="301" y="439" type="line" smooth="yes"/>
      <point x="301" y="226"/>
      <point x="363" y="109"/>
      <point x="568" y="109" type="curve" smooth="yes"/>
      <point x="773" y="109"/>
      <point x="835" y="226"/>
      <point x="835" y="439" type="curve" smooth="yes"/>
      <point x="835" y="1085" type="line"/>
      <point x="1001" y="1085" type="line"/>
      <point x="1001" y="437" type="line" smooth="yes"/>
      <point x="1001" y="125"/>
      <point x="864" y="-18"/>
    </contour>
  </outline>
</glyph>
